<svg xmlns="http://www.w3.org/2000/svg" viewBox="0 0 512 512">
  <defs>
    <linearGradient id="grad" x1="0%" y1="0%" x2="100%" y2="100%">
      <stop offset="0%" style="stop-color:#9333EA"/>
      <stop offset="100%" style="stop-color:#EC4899"/>
    </linearGradient>
  </defs>

  <!-- Background -->
  <rect width="512" height="512" rx="100" fill="url(#grad)"/>

  <!-- Sun symbol -->
  <circle cx="256" cy="220" r="60" fill="#FFF" opacity="0.95"/>

  <!-- Sun rays -->
  <g fill="#FFF" opacity="0.9">
    <rect x="250" y="120" width="12" height="30" rx="6"/>
    <rect x="250" y="290" width="12" height="30" rx="6"/>
    <rect x="320" y="214" width="30" height="12" rx="6"/>
    <rect x="162" y="214" width="30" height="12" rx="6"/>
    <rect x="308" y="152" width="12" height="30" rx="6" transform="rotate(45 314 167)"/>
    <rect x="192" y="268" width="12" height="30" rx="6" transform="rotate(45 198 283)"/>
    <rect x="308" y="268" width="12" height="30" rx="6" transform="rotate(-45 314 283)"/>
    <rect x="192" y="152" width="12" height="30" rx="6" transform="rotate(-45 198 167)"/>
  </g>

  <!-- Text "운세" -->
  <text x="256" y="400" font-family="Arial, sans-serif" font-size="72" font-weight="bold" fill="#FFF" text-anchor="middle">운세</text>
</svg>
